<?xml version="1.0" encoding="UTF-8" standalone="no"?>
<svg
   width="1920"
   height="6435"
   viewBox="0 0 1920 6435"
   fill="none"
   version="1.1"
   id="svg10"
   sodipodi:docname="SettingsBackground.svg"
   inkscape:version="1.1 (c4e8f9ed74, 2021-05-24)"
   xmlns:inkscape="http://www.inkscape.org/namespaces/inkscape"
   xmlns:sodipodi="http://sodipodi.sourceforge.net/DTD/sodipodi-0.dtd"
   xmlns="http://www.w3.org/2000/svg"
   xmlns:svg="http://www.w3.org/2000/svg">
  <defs
     id="defs14" />
  <sodipodi:namedview
     id="namedview12"
     pagecolor="#ffffff"
     bordercolor="#666666"
     borderopacity="1.0"
     inkscape:pageshadow="2"
     inkscape:pageopacity="0.0"
     inkscape:pagecheckerboard="0"
     showgrid="false"
     inkscape:zoom="0.125"
     inkscape:cx="404"
     inkscape:cy="3428"
     inkscape:window-width="1920"
     inkscape:window-height="1051"
     inkscape:window-x="0"
     inkscape:window-y="0"
     inkscape:window-maximized="1"
     inkscape:current-layer="svg10" />
  <rect
     x="0"
     width="1920"
     height="6435"
     fill="#32363d"
     id="rect2"
     y="0" />
  <path
     id="path4"
     style="fill:#353c46;fill-opacity:1"
     d="M 369.51562 2278.5527 L 271.9707 2295.7129 L 0.001953125 2786.3613 L 0.001953125 3103.9805 L 376.44141 2424.8633 L 1021.5469 2782.4531 L 1076.4961 2918.3438 L 554.11719 3851.2129 L 540.14648 3819.2539 L 506.11133 3779.0137 L 0.001953125 3498.4746 L 0.001953125 3640.9473 L 417.41602 3872.3223 L 481.88867 4029.1641 L 576.16211 4081.4238 L 743.33594 4052.9824 L 1455.7773 4447.8926 L 1553.3164 4430.7227 L 1920.0078 3769.2012 L 1920.0078 3451.5918 L 1448.8477 4301.584 L 775.4668 3928.3125 L 719.26758 3918.5332 L 692.55664 3922.2539 L 1210.8965 2987.1426 L 1347.457 2963.1133 L 1920.0078 3280.4746 L 1920.0078 3138 L 1379.5977 2838.4434 L 1323.3965 2828.6641 L 1197.1875 2849.8926 L 1148.3164 2731.6133 L 1110.2363 2689.1426 L 369.51562 2278.5527 z M 390.29297 2717.4922 L 329.87891 2826.4727 L 733.90625 3050.4336 L 794.32617 2941.4531 L 390.29297 2717.4922 z M 269.4668 2935.4629 L 209.05469 3044.4531 L 613.08594 3268.4141 L 673.49609 3159.4238 L 269.4668 2935.4629 z M 148.64258 3153.4434 L 88.230469 3262.4238 L 492.25977 3486.3828 L 552.67188 3377.3926 L 148.64258 3153.4434 z M 1333.0273 3240.0625 L 1272.6172 3349.043 L 1676.6465 3573.0039 L 1737.0566 3464.0137 L 1333.0273 3240.0625 z M 1212.207 3458.0332 L 1151.7969 3567.0234 L 1555.8262 3790.9824 L 1616.2363 3681.9922 L 1212.207 3458.0332 z M 1091.377 3676.0137 L 1030.9668 3784.9922 L 1434.9961 4008.9531 L 1495.4062 3899.9629 L 1091.377 3676.0137 z " />
  <path
     id="path6"
     d="M 1859.7637 182.16797 C 1716.8034 184.58573 1575.032 212.20384 1469.0195 288.40234 C 1327.6695 186.80434 1122.7492 171.6902 936.19922 187.2832 C 718.94922 205.6362 499.67841 267.88912 363.06641 319.82812 C 350.53141 324.59312 339.90031 332.27417 332.44531 341.95117 C 324.98931 351.62917 321.02353 362.89525 321.01953 374.40625 L 321.01953 1693.8516 C 321.02253 1703.8916 324.04002 1713.7603 329.79102 1722.5703 C 335.54302 1731.3803 343.84445 1738.8415 353.93945 1744.2715 C 364.03545 1749.7015 375.59827 1752.9304 387.57227 1753.6504 C 399.54527 1754.3804 411.54661 1752.5816 422.47461 1748.4316 C 549.03961 1700.4516 752.96078 1642.7501 950.55078 1626.0801 C 1152.7508 1609.0501 1322.2205 1636.5213 1413.0605 1731.2812 C 1419.7805 1738.2812 1428.3005 1743.9303 1437.9805 1747.8203 C 1447.6705 1751.7003 1458.2795 1753.7207 1469.0195 1753.7207 C 1479.7595 1753.7207 1490.3705 1751.7003 1500.0605 1747.8203 C 1509.7405 1743.9303 1518.2602 1738.2812 1524.9902 1731.2812 C 1605.5111 1647.2764 1747.9765 1616.3329 1920.0117 1622.2148 L 1920.0117 1502.4102 C 1787.4973 1498.4374 1651.8963 1513.1114 1540.7695 1565.8711 L 1540.7695 396.83594 C 1623.3577 324.10815 1758.6784 297.15744 1920.0117 302.67188 L 1920.0117 182.82812 C 1899.9611 182.23675 1879.8633 181.82804 1859.7637 182.16797 z M 1087.793 302.32422 C 1218.233 306.06334 1326.882 334.85219 1397.2695 396.83594 L 1397.2695 1565.8711 C 1263.0995 1502.2911 1093.0492 1493.5405 936.19922 1506.7305 C 766.86922 1521.1205 596.10953 1562.0317 464.51953 1604.0117 L 464.51953 413.74805 C 591.51953 369.36705 773.61922 321.50877 950.69922 306.63477 C 998.41171 302.61652 1044.313 301.07784 1087.793 302.32422 z "
     style="fill:#373c44;fill-opacity:1" />
  <path
     d="m 566.31387,5145.9025 c 0,-11.05 8.954,-20 20.004,-20 h 133.56 c 11.05,0 20,8.95 20,20 v 1205 c 0,11.05 -8.95,20 -20,20 h -133.56 c -11.05,0 -20.004,-8.95 -20.004,-20 z m -260.346,0 c 0,-11.05 8.954,-20 20,-20 h 133.564 c 11.046,0 20,8.95 20,20 v 1205 c 0,11.05 -8.954,20 -20,20 h -133.564 c -11.046,0 -20,-8.95 -20,-20 z m 520.69,0 c 0,-11.05 8.96,-20 20,-20 h 133.57 c 11.04,0 20.00003,8.95 20.00003,20 v 1205 c 0,11.05 -8.96003,20 -20.00003,20 h -133.57 c -11.04,0 -20,-8.95 -20,-20 z m 802.97003,1205.75 c -9.51,2.79 -19.63,-1.8 -23.79,-10.8 l -523.08,-1131.52 c -5.12,-11.08 0.8,-24.13 12.52,-27.58 l 124.09,-36.46 c 9.51,-2.8 19.64,1.8 23.8,10.8 l 523.07,1131.52 c 5.13,11.08 -0.8,24.13 -12.51,27.58 z"
     fill="#434851"
     id="path8" />
</svg>
